<!DOCTYPE html>
<html lang="zh-CN">
<head>
  <meta charset="utf-8" />
  <meta name="viewport" content="width=device-width,initial-scale=1" />
  <title>20世纪中华歌坛名人百集珍藏版 - 杨钰莹</title>
  <style>
    html,body{
      height:100%;
      margin:0;
      font-family:"Microsoft YaHei","微软雅黑",Arial,sans-serif;
      background:#fff;
      color:#222;
      scroll-behavior:smooth;
    }
    .container{
      max-width:900px;
      margin:0 auto;
      padding:20px;
      box-sizing:border-box;
    }

    /* 顶部按钮组（图片上方居中） */
    .top-buttons{
      display:flex;
      justify-content:center;
      gap:20px;
      margin-bottom:15px;
    }
    .top-buttons a{
      display:inline-block;
      background-color:#0078d7;
      color:#fff;
      padding:10px 20px;
      border-radius:6px;
      text-decoration:none;
      transition:background 0.3s;
      font-size:15px;
    }
    .top-buttons a:hover{
      background-color:#005fa3;
    }

    /* 图片展示 */
    .images{
      display:flex;
      flex-direction:column;
      align-items:center;
      gap:20px;
      margin-bottom:30px;
    }
    .images img{
      width:100%;
      max-width:800px;
      height:auto;
      border-radius:10px;
      box-shadow:0 6px 14px rgba(0,0,0,0.08);
    }

    h1{
      font-size:20px;
      text-align:center;
      margin:0 0 20px 0;
    }
    .text-block{
      background:rgba(255,255,255,0.9);
      padding:16px;
      border-radius:8px;
      box-shadow:0 6px 18px rgba(0,0,0,0.06);
      white-space:pre-wrap;
      line-height:1.6;
      font-size:14px;
    }
    hr.sep{
      border:0;
      height:1px;
      background:linear-gradient(90deg,transparent,#ddd,transparent);
      margin:20px 0;
    }

    /* 底部按钮 */
    .buttons{
      display:flex;
      justify-content:center;
      gap:20px;
      margin-top:40px;
    }
    .buttons a{
      display:inline-block;
      background-color:#0078d7;
      color:#fff;
      padding:10px 20px;
      border-radius:6px;
      text-decoration:none;
      transition:background 0.3s;
      font-size:15px;
    }
    .buttons a:hover{
      background-color:#005fa3;
    }
  </style>
</head>
<body id="top">

  <div class="container">

    <!-- 顶部按钮（位于图片上方并居中） -->
    <div class="top-buttons">
      <a href="Contents.html#053">返回目录</a>
      <a href="#bottom">一键到底</a>
    </div>

    <!-- 图片展示 -->
    <div class="images" aria-label="相关图片">
      <a href="https://pic.moebox.io/image/01.4wGD2l"><img src="https://image.acg.lol/file/2025/10/19/01cc833bd18f03980e.jpg" alt="01" border="0"></a>
<a href="https://pic.moebox.io/image/02.4wGY14"><img src="https://image.acg.lol/file/2025/10/19/02c6d9b704f033b78e.jpg" alt="02" border="0"></a>
<a href="https://pic.moebox.io/image/03.4wGumV"><img src="https://image.acg.lol/file/2025/10/19/03b161580e232ba51b.jpg" alt="03" border="0"></a>
<a href="https://pic.moebox.io/image/04.4wGw5a"><img src="https://image.acg.lol/file/2025/10/19/04e680de6a0fd44122.jpg" alt="04" border="0"></a>
<a href="https://pic.moebox.io/image/05.4wG7Hq"><img src="https://image.acg.lol/file/2025/10/19/05316880708d3baa4c.jpg" alt="05" border="0"></a>
<a href="https://pic.moebox.io/image/06.4wGE7U"><img src="https://image.acg.lol/file/2025/10/19/0645b8a332fa6ec56f.jpg" alt="06" border="0"></a>
<a href="https://pic.moebox.io/image/07.4wGF3O"><img src="https://image.acg.lol/file/2025/10/19/074e8570fcccf5e38e.jpg" alt="07" border="0"></a>
<a href="https://pic.moebox.io/image/08.4wGHP5"><img src="https://image.acg.lol/file/2025/10/19/08fb01cf83b9b13c24.jpg" alt="08" border="0"></a>
    </div>
    
    <h1>20世纪中华歌坛名人百集珍藏版 - 杨钰莹 </h1>

    <div class="text-block">
053-20世纪中华歌坛名人百集珍藏版-杨钰莹[lwg188原创][wav] 
  
发表于 2011-4-24 00:41 |只看该作者 |倒序浏览 

专辑：20世纪中华歌坛名人百集珍藏版
演唱：杨钰莹
语言：国语
公司：中国唱片总公司
日期：1998年

本系列系统介绍二十世纪中国歌坛的名人名歌、收录了百余名演唱者的曲目，每位演唱者均选收其代表作品。按民族、美声、通俗不同风格精心编排，曲曲动人，它可以说是本世纪中国声乐发展的缩影，无论欣赏、收藏决不会令您失望！

曲目

01.我不想说 
02.轻轻地告拆你 
03.月亮船 
04.等你一万年 
05.风含情水含笑 
06.茶山情歌 
07.梅花雪 
08.是否我不该等你
09.星星是我看你的眼睛 
10.你看蓝蓝的天 
11.天各一方 
12.晚霞中的红蜻蜓 
13.落花 
14.因为有你
    </div>

    <hr class="sep">

    <div class="text-block">
Exact Audio Copy V0.99 prebeta 1 from 25. May 2007

EAC 抓取日志文件从20. 四月 2011, 22:50

杨钰莹 / 20世纪中华歌坛名人百集珍藏版

使用驱动器  ：PIONEER DVD-RW  DVR-115   Adapter: 0  ID: 0

读取模式     : 保护
使用精确流   : 是
废除音频缓冲 : 是
使用 C2 指针 : 否

读取偏移校正                   : 48
读取 Lead-In 和 Lead-Out       : 否
用静音填充抓取中丢失偏移的采样 : 是
去除首尾静音块                 : 否
已用接口                       : Win NT 及 2000 本地 Win32 接口

所用输出格式 : 内部 WAV 函数
样本格式     : 44.100 Hz;16 Bit;立体声
使用压缩偏移 : 48


被抓轨 CD 的 TOC

     音轨 |   开始   |   长度   | 起始扇区 | 结尾扇区 
    --------------------------------------------------
       1  |  0:00.00 |  4:28.60 |       0  |   20159  
       2  |  4:28.60 |  4:36.10 |   20160  |   40869  
       3  |  9:04.70 |  5:19.47 |   40870  |   64841  
       4  | 14:24.42 |  3:59.05 |   64842  |   82771  
       5  | 18:23.47 |  4:15.65 |   82772  |  101961  
       6  | 22:39.37 |  3:49.65 |  101962  |  119201  
       7  | 26:29.27 |  3:49.68 |  119202  |  136444  
       8  | 30:19.20 |  4:53.37 |  136445  |  158456  
       9  | 35:12.57 |  4:34.43 |  158457  |  179049  
      10  | 39:47.25 |  4:33.05 |  179050  |  199529  
      11  | 44:20.30 |  4:22.72 |  199530  |  219251  
      12  | 48:43.27 |  4:14.65 |  219252  |  238366  
      13  | 52:58.17 |  4:22.70 |  238367  |  258086  
      14  | 57:21.12 |  5:20.63 |  258087  |  282149  


范围状态及错误

已选择范围

     文件名 E:\20世纪中华歌坛名人百集珍藏版-杨钰莹[lwg188原创]\杨钰莹 - 20世纪中华歌坛名人百集珍藏版.wav

     峰值电平 100.0 %
     范围质量 100.0 %
     复制 CRC FC77E24D
     复制成功

没有错误发生

状态报告结尾
    </div>

    <!-- 底部按钮 -->
    <div id="bottom" class="buttons">
      <a href="https://url53.ctfile.com/f/25713053-8446765099-8d178e?p=1024" download>下载</a>
      <a href="Contents.html#053">返回目录</a>
      <a href="#top">回到顶部</a>
    </div>

  </div>

</body>
</html>
